<svg width="75" height="92" viewBox="0 0 75 92" fill="none" xmlns="http://www.w3.org/2000/svg">
<path d="M15.4337 6.8051C14.6155 4.34942 15.9402 1.67023 18.4664 1.10603C24.7784 -0.303688 31.3349 -0.370316 37.7058 0.932007C45.6117 2.54814 52.9534 6.21556 58.9939 11.5661C65.0344 16.9167 69.5611 23.7621 72.1196 31.4152C74.6781 39.0683 75.1784 47.2598 73.5702 55.1673C71.9621 63.0749 68.3021 70.4203 62.9576 76.4662C57.6131 82.5121 50.7723 87.0457 43.1218 89.6119C35.4713 92.1781 27.2803 92.6867 19.3711 91.0865C12.9977 89.797 6.98792 87.1748 1.72792 83.4117C-0.37722 81.9056 -0.550301 78.9218 1.16207 76.9808C2.87444 75.0397 5.82203 74.8831 7.96573 76.3338C11.963 79.0388 16.469 80.936 21.2299 81.8992C27.5274 83.1733 34.0493 82.7684 40.1409 80.7251C46.2324 78.6818 51.6793 75.072 55.9347 70.2581C60.1901 65.4442 63.1044 59.5955 64.3848 53.2993C65.6653 47.0031 65.2669 40.4808 63.2298 34.3871C61.1926 28.2935 57.5883 22.843 52.7787 18.5827C47.9691 14.3225 42.1234 11.4024 35.8285 10.1155C31.0696 9.14273 26.1805 9.12925 21.4442 10.0581C18.9041 10.5563 16.2519 9.26079 15.4337 6.8051Z" fill="#282727"/>
</svg>
