<svg width="56" height="56" viewBox="0 0 56 56" fill="none" xmlns="http://www.w3.org/2000/svg">
<path d="M5.15089 0C2.17397 0 -0.266538 2.41893 0.0234687 5.38169C0.559249 10.8554 1.91052 16.2306 4.04166 21.3297C6.86795 28.092 11.0105 34.2365 16.2328 39.4121C21.4551 44.5878 27.6549 48.6934 34.4782 51.4944C39.653 53.6188 45.1096 54.9612 50.6658 55.4859C53.603 55.7632 56 53.3454 56 50.3951C56 47.4448 53.6003 45.0852 50.67 44.7423C46.5308 44.258 42.4699 43.2107 38.6036 41.6236C33.0883 39.3595 28.0769 36.0409 23.8557 31.8573C19.6344 27.6737 16.286 22.7071 14.0014 17.2411C12.4123 13.4388 11.3596 9.44661 10.866 5.37715C10.5076 2.42189 8.12781 0 5.15089 0Z" fill="#282727"/>
</svg>
