<svg width="8" height="10" viewBox="0 0 8 10" fill="none" xmlns="http://www.w3.org/2000/svg">
<path d="M0.206648 0.409828C0.0262358 0.567908 -0.0452383 1.32145 0.0290426 2.06035C0.117251 2.93778 0.401959 3.32899 1.04285 3.35786C1.48011 3.3139 2.21817 3.333 2.60685 3.29392C3.00018 3.30103 3.32418 3.59499 3.26415 3.97421C2.82106 7.37738 3.89986 9.32142 5.73896 8.57676C6.44453 8.27259 6.60421 8.39648 6.43092 9.11362C6.30158 9.77969 6.4266 10.047 6.96104 9.99328C7.93274 9.89559 7.84701 9.53103 6.3331 7.16425C5.63402 6.06834 4.76381 5.22287 4.42372 5.25706C3.59777 5.34009 3.51885 4.55502 4.31694 4.1949C4.74027 4.0124 4.55274 3.61143 3.72647 2.71489C3.11775 2.02973 2.43724 1.11854 2.19647 0.676267C1.82604 -0.079502 0.729315 -0.249134 0.206648 0.409828Z" fill="black"/>
</svg>
