<svg width="7" height="9" viewBox="0 0 7 9" fill="none" xmlns="http://www.w3.org/2000/svg">
<path d="M1.68167 2.70788C2.84853 4.17594 3.81877 5.53166 3.84068 5.74964C3.8626 5.96763 4.58801 6.73143 5.44226 7.3942L7 8.60277L6.51442 6.53776C5.90205 4.1332 4.88564 1.85733 3.93731 0.719598C3.35827 0.0291635 3.26653 0.0383855 3.33227 0.692347C3.43308 1.69509 2.37375 1.75754 1.25511 0.76905C-0.571417 -0.80885 -0.38326 0.14107 1.68167 2.70788ZM5.32565 4.85171C5.90062 6.42332 5.83518 6.69412 5.00927 5.85236C4.18336 5.01059 3.94495 4.02168 4.54123 3.96174C4.77056 3.93868 5.08959 4.34699 5.32565 4.85171Z" fill="black"/>
</svg>
