<svg width="12" height="12" viewBox="0 0 12 12" fill="none" xmlns="http://www.w3.org/2000/svg">
<path d="M0.0292947 0.251744C-0.0888014 0.436872 0.160624 1.10482 0.590501 1.75463C1.23532 2.72935 1.61778 2.90747 2.45337 2.6069C3.37919 2.29726 3.52746 2.41229 3.96626 4.05743C4.59644 6.24641 5.15735 6.83974 6.60097 6.69461C7.18744 6.63565 7.6107 6.76636 7.4518 6.9989C7.33801 7.22691 7.45842 7.51801 7.69691 7.62397C7.93541 7.72994 8.07737 8.23544 7.98514 8.67785C7.89291 9.12027 8.11015 9.92139 8.47767 10.4042C8.95697 11.0924 9.33081 11.1847 10.2115 10.8796C11.1373 10.57 11.2813 10.6421 11.1118 11.2223C10.9787 11.7121 11.0862 11.8745 11.4385 11.7525C12.4416 11.3051 12.1514 10.6846 10.1572 8.97927C9.06123 8.0499 8.24028 7.13621 8.35837 6.95108C8.59025 6.53794 5.35184 3.7882 4.63003 3.86076C4.35935 3.88797 4.18952 3.55853 4.28175 3.11612C4.63574 1.65116 0.926945 -0.791408 0.0292947 0.251744Z" fill="black"/>
</svg>
