<svg width="38" height="29" viewBox="0 0 38 29" fill="none" xmlns="http://www.w3.org/2000/svg">
<path d="M1.40375 0.771238C1.28879 1.00161 1.31056 1.21823 1.49288 1.1999C1.6752 1.18157 1.52772 1.54649 1.20229 1.97307C0.638212 2.77373 0.098245 4.27216 0.0010081 5.5948C-0.0291758 6.2105 0.626361 6.31965 0.888798 5.72436C0.962536 5.5419 0.979958 5.71519 0.878062 6.07554C0.379622 8.44503 0.379622 8.44503 1.39311 7.99305C2.19177 7.69395 2.47831 7.79643 2.73032 8.47129C2.91497 8.93411 3.22329 9.25321 3.39254 9.10491C3.56615 8.99994 4.17843 9.59481 4.8125 10.4063C5.40534 11.2657 8.27777 13.734 11.1609 15.851C14.5977 18.4376 16.3672 20.0102 16.2285 20.4618C16.0941 20.9567 16.2851 21.025 16.9514 20.7829C17.6176 20.5409 18.677 21.0033 20.6982 22.3318C24.0502 24.533 28.1316 26.6609 28.8608 26.5876C29.1343 26.5601 29.3233 27.0663 29.3062 27.812C29.2458 29.0434 29.2458 29.0434 30.4242 28.3998C31.2966 27.9182 31.6612 27.8815 31.9739 28.244C32.3409 28.6885 34.3551 28.5735 34.763 28.0511C34.8867 27.9074 35.5312 27.4487 36.2256 27.0288C38.8709 25.4063 38.5992 24.077 35.1362 21.2305C33.7337 20.1023 33.4492 19.562 33.54 18.6339L33.6959 17.4367L32.8021 18.6206C32.3161 19.2821 32.0144 19.4875 32.1532 19.0359C32.2876 18.541 31.8164 17.9757 30.7852 17.3354C29.9494 16.8068 29.0767 16.3694 28.8488 16.3923C28.6665 16.4106 28.5991 16.1986 28.7553 15.9203C28.8659 15.6466 27.7824 14.4864 26.1932 13.3333C24.6496 12.1756 23.3751 10.9471 23.3359 10.5572C23.301 10.2106 23.0969 10.0123 22.9277 10.1606C22.7128 10.3135 20.9718 9.48201 18.9724 8.37015C17.0185 7.25371 15.3274 6.46095 15.1994 6.56135C15.1213 6.70048 14.5395 6.40888 13.8947 5.94855C12.0471 4.51509 10.0021 3.40781 9.40956 3.46738C9.13608 3.49487 8.54993 3.15994 8.13738 2.72003C7.72484 2.28012 7.28849 2.06142 7.16917 2.24846C6.99992 2.39676 6.85447 2.32386 6.82833 2.06391C6.79785 1.76064 6.36585 1.58526 5.8189 1.64025C5.08962 1.71356 4.93546 1.55401 5.09367 0.837911C5.28005 -0.0560659 4.56151 -0.33393 4.13853 0.496311C3.9867 0.81791 3.62206 0.854567 2.99904 0.610864C1.89844 0.196362 1.71612 0.21469 1.40375 0.771238ZM9.35507 9.33698C9.86313 9.81105 9.75252 10.0847 8.85632 10.7875C8.25741 11.2416 7.86259 11.8939 8.02981 12.1835C8.48156 13.0133 8.19501 12.9108 7.08338 11.9285C6.22141 11.1399 6.21706 11.0966 6.97247 11.2832C7.63236 11.4357 7.83848 11.1962 7.9662 10.1768C8.09595 8.7196 8.48875 8.50507 9.35507 9.33698ZM19.4239 15.1516C19.5824 15.3545 19.4219 15.5895 19.0117 15.6307C18.6015 15.6719 18.3974 15.4737 18.5123 15.2433C18.6229 14.9696 18.8334 14.7734 18.9246 14.7642C19.0157 14.7551 19.261 14.9054 19.4239 15.1516Z" fill="black"/>
</svg>
