<svg width="3" height="10" viewBox="0 0 3 10" fill="none" xmlns="http://www.w3.org/2000/svg">
<path d="M0.45269 1.05355C0.335486 1.79394 0.175386 2.58419 0.0557585 2.8239C-0.0209717 3.01377 -0.0248718 4.88122 0.0842152 6.91946C0.290901 10.4051 0.304497 10.5404 0.89357 9.25161C1.20502 8.53723 1.62493 7.94856 1.86208 7.92472C2.09922 7.90088 2.32942 7.33129 2.39919 6.59566C2.4735 5.90512 2.66743 4.97487 2.81182 4.50497C2.94716 3.94491 2.82964 3.72903 2.41184 3.86211C1.94661 3.99996 1.70704 3.52312 1.51911 2.13034C1.23601 -0.209182 0.707333 -0.70249 0.45269 1.05355ZM1.14337 6.49422C1.0464 6.95935 0.915283 6.60823 0.829172 5.75166C0.743062 4.89509 0.801664 4.5249 0.984741 4.91634C1.12492 5.35762 1.19743 6.07894 1.14337 6.49422Z" fill="black"/>
</svg>
