<svg width="25" height="23" viewBox="0 0 25 23" fill="none" xmlns="http://www.w3.org/2000/svg">
<path d="M2.73607 0.748023C2.21158 1.01927 1.39252 2.01942 0.846586 2.9921C-0.011315 4.5206 -0.115101 5.31772 0.0896373 8.26907C0.450964 12.778 1.48983 14.4218 4.15407 14.8532C5.74089 15.0871 6.04011 15.3192 6.28541 16.3872C6.55247 17.6715 5.92419 18.7398 3.64444 20.7609C2.88163 21.4058 2.77552 21.7224 3.2113 21.9408C3.5972 22.1205 4.61139 21.2319 6.048 19.5141C7.27876 18.0355 8.4988 16.9076 8.73945 17.0146C9.80178 17.5196 9.24078 18.7998 7.24052 20.3994C3.83381 23.1019 5.5398 23.149 9.0419 20.4805C10.7496 19.1725 12.2645 18.2336 12.464 18.3883C12.6635 18.5431 12.4295 18.96 11.9636 19.3564C11.4933 19.7096 10.7305 20.3545 10.2646 20.751C9.46494 21.4869 9.46494 21.4869 10.6983 21.4066C11.3811 21.338 11.9056 21.0668 11.8839 20.8504C11.8578 20.5908 12.2045 20.3811 12.6597 20.3354C13.5246 20.2484 15.8586 18.3093 14.9893 18.353C14.6707 18.385 14.3671 18.1096 14.3323 17.7635C14.2801 17.2442 14.8589 17.055 16.9983 16.8399C19.5474 16.5836 19.8985 16.4172 21.4305 14.7335C23.3374 12.6625 24.8424 7.96592 24.5379 4.93719C24.4335 3.89877 24.5199 2.92858 24.7756 2.72805C25.3738 2.27458 24.7405 1.46414 23.2967 0.822607C20.8446 -0.242037 4.70183 -0.279986 2.73607 0.748023Z" fill="black"/>
</svg>
