<svg width="8" height="20" viewBox="0 0 8 20" fill="none" xmlns="http://www.w3.org/2000/svg">
<path d="M0.419129 0.778662C-0.0928492 1.87676 -0.142351 2.33679 0.306854 2.51916C1.26172 2.96924 1.91725 12.8236 1.06897 13.91C0.43503 14.7473 0.439559 14.7923 1.19789 14.7161C1.90882 14.6446 4.28829 16.4077 7.04272 19.0431L8 19.9935L7.7962 17.9663C7.6241 16.2544 7.5112 16.0837 7.16163 16.8924C6.77372 17.796 6.67893 17.8056 5.34006 16.393C3.58579 14.6581 3.56767 14.4779 4.93762 14.2947C5.73881 14.1686 5.63496 14.088 4.52222 13.9724L3.07318 13.845L2.10252 6.57067C1.13185 -0.703665 1.13185 -0.703665 0.419129 0.778662Z" fill="black"/>
</svg>
