<svg width="7" height="19" viewBox="0 0 7 19" fill="none" xmlns="http://www.w3.org/2000/svg">
<path d="M3.75272 1.59557C3.43526 3.60107 3.01574 6.46905 2.76492 8.19872C2.62954 9.19912 2.3671 9.40492 1.27921 9.37972L-5.03457e-06 9.32891L1.36164 9.73027C2.57421 10.0569 2.68996 10.2695 2.64594 11.7093C2.36273 16.4026 2.38744 17.1178 2.94805 17.0614C3.3685 17.0192 3.38189 17.1524 3.01054 17.6831C2.59694 18.2629 2.7127 18.4756 3.54706 18.7954C4.13445 19.0054 4.80188 19.0729 5.11551 18.9068C5.52257 18.7313 5.51364 18.6425 5.09319 18.6848C4.15438 18.7343 4.25405 17.3787 5.18392 17.2403C5.88468 17.1699 5.88021 17.1255 5.05478 16.8945C4.22934 16.6635 4.22487 16.6191 4.8542 15.8382C5.2812 15.3915 5.33892 15.0269 5.05862 15.0551C4.77832 15.0833 4.62031 14.9197 4.78039 14.6345C4.89822 14.3984 4.92677 13.2742 4.86635 12.2037C4.75475 11.0936 4.86127 10.2755 5.10824 10.3853C5.79799 10.6748 5.56202 10.2051 4.73866 9.52534C4.0733 9.00912 4.04652 8.74269 4.4378 7.94084C4.71572 7.4195 5.18943 6.96819 5.46973 6.94001C5.75003 6.91184 5.83215 6.32048 5.61165 5.53527C5.31764 4.48833 5.38429 4.2125 5.87824 4.43197C6.3722 4.65144 6.40106 4.46912 6.07819 3.6045C5.8199 2.9128 5.91095 2.41025 6.27129 2.23946C6.67389 2.01957 6.66496 1.93076 6.24451 1.97303C5.35242 2.01786 5.40536 0.666912 6.29299 0.577679C7.32076 0.474357 6.92024 0.245497 5.34287 0.0452362C4.14816 -0.103784 4.0214 0.0435214 3.75272 1.59557Z" fill="black"/>
</svg>
