<svg width="3" height="5" viewBox="0 0 3 5" fill="none" xmlns="http://www.w3.org/2000/svg">
<path d="M0.1174 0.922287C-0.236052 2.4464 0.257746 5.06744 0.941746 4.99867C1.16975 4.97575 1.19356 4.75445 1.03497 4.55148C0.872029 4.30517 1.0065 3.81006 1.33208 3.38329C1.70327 2.95194 1.83774 2.45683 1.67479 2.21052C1.41629 1.93003 1.54873 1.87294 1.93532 2.05298C2.41747 2.2672 2.49995 2.17135 2.21531 1.6308C1.98933 1.2157 1.78717 0.579298 1.74796 0.189205C1.66314 -0.196303 1.42004 0.134607 1.12932 0.908122C0.842947 1.72498 0.497907 2.41639 0.361106 2.43014C0.224306 2.4439 0.27629 2.04464 0.497603 1.49701C0.723272 0.992723 0.84467 0.367576 0.677369 0.0779227C0.560025 -0.17297 0.321283 0.201284 0.1174 0.922287Z" fill="black"/>
</svg>
